<?xml version="1.0" encoding="UTF-8" standalone="no"?>
<svg
   viewBox="0 0 48 48"
   width="48px"
   height="48px"
   version="1.1"
   id="svg1"
   sodipodi:docname="icons8-arch-linux-purple.svg"
   inkscape:version="1.4.2 (ebf0e940d0, 2025-05-08)"
   xmlns:inkscape="http://www.inkscape.org/namespaces/inkscape"
   xmlns:sodipodi="http://sodipodi.sourceforge.net/DTD/sodipodi-0.dtd"
   xmlns="http://www.w3.org/2000/svg"
   xmlns:svg="http://www.w3.org/2000/svg">
  <defs
     id="defs1" />
  <sodipodi:namedview
     id="namedview1"
     pagecolor="#505050"
     bordercolor="#eeeeee"
     borderopacity="1"
     inkscape:showpageshadow="0"
     inkscape:pageopacity="0"
     inkscape:pagecheckerboard="0"
     inkscape:deskcolor="#505050"
     inkscape:zoom="2.8284271"
     inkscape:cx="51.618795"
     inkscape:cy="25.632621"
     inkscape:window-width="1920"
     inkscape:window-height="1128"
     inkscape:window-x="0"
     inkscape:window-y="0"
     inkscape:window-maximized="1"
     inkscape:current-layer="svg1" />
  <path
     fill="#1e88e5"
     d="M28.465,38.611c0.419-1.105,0.664-2.365,0.664-3.714c0-4.133-2.211-7.494-4.929-7.494 c-2.741,0-4.951,3.361-4.951,7.494c0,1.326,0.221,2.586,0.641,3.669c-9.041,0.951-15.407,4.731-17.993,6.432 c4.355-6.278,8.909-13.638,13.262-22.105c1.083-2.101,2.101-4.178,3.05-6.211c0.375,0.243,0.751,0.509,1.171,0.775 c1.945,1.215,3.759,1.879,5.084,2.233c-0.973-0.73-2.033-1.613-3.116-2.697c-0.817-0.817-1.547-1.637-2.167-2.433 C21.016,10.538,22.608,6.669,24,3c2.32,6.144,5.217,12.842,8.841,19.893c2.343,4.531,4.731,8.754,7.117,12.644 c-0.685-0.375-1.437-0.73-2.233-1.039c-1.371-0.53-2.652-0.862-3.759-1.06c1.503,0.751,3.25,1.747,5.084,3.073 c1.194,0.885,2.254,1.769,3.161,2.631c0.021,0.021,0.021,0.021,0.045,0.045c1.26,2.056,2.565,3.957,3.846,5.813 C43.561,43.319,37.306,39.605,28.465,38.611z"
     id="path1"
     style="fill:#932efa;fill-opacity:1" />
  <path
     style="fill:#932efa;stroke-width:0.054732;fill-opacity:1"
     d="m 2.1071836,44.770003 c 0,-0.0155 0.3498719,-0.538871 0.7774931,-1.163056 C 6.6437178,38.11999 10.52747,31.684705 13.924894,25.313569 c 0.817614,-1.53326 3.206593,-6.276887 3.893553,-7.731158 l 0.407323,-0.862285 0.492588,0.331663 c 1.72941,1.164424 3.668295,2.085789 5.391106,2.561875 l 0.41049,0.113436 -0.168602,-0.148613 c -0.09273,-0.08174 -0.375969,-0.311527 -0.629418,-0.510645 -0.810533,-0.636781 -1.806685,-1.541882 -2.622732,-2.383009 -0.801364,-0.825991 -1.86089,-2.041448 -1.86089,-2.134758 0,-0.02782 0.248505,-0.603737 0.552232,-1.279807 1.141353,-2.540548 3.213457,-7.5381189 4.02142,-9.6990023 0.08723,-0.2332953 0.171381,-0.4238971 0.187001,-0.4235594 0.01562,3.377e-4 0.272292,0.6345453 0.570381,1.4093501 3.772096,9.8045916 8.799975,20.0650156 14.430479,29.4483726 0.475197,0.791926 0.847429,1.432114 0.827182,1.42264 -0.02025,-0.0095 -0.18459,-0.09407 -0.365205,-0.187983 -0.886742,-0.461093 -2.360107,-1.034555 -3.477462,-1.353496 -0.750917,-0.214344 -1.969551,-0.489749 -2.005963,-0.453337 -0.0126,0.0126 0.292407,0.18971 0.677803,0.39357 2.65324,1.403463 4.961832,3.010327 7.105306,4.94555 0.366401,0.330802 0.545525,0.550291 0.854122,1.046596 0.515985,0.829836 2.044496,3.144078 2.734831,4.140671 0.302596,0.436837 0.538937,0.805488 0.525203,0.819223 -0.01374,0.01373 -0.230997,-0.107848 -0.482804,-0.270183 -1.154301,-0.744153 -3.017399,-1.749342 -4.590101,-2.476477 -3.545214,-1.639121 -7.825202,-2.880753 -11.527739,-3.344219 l -0.772892,-0.09675 0.12804,-0.376455 c 0.832018,-2.446234 0.641123,-5.592834 -0.474961,-7.828985 -0.96159,-1.926612 -2.371921,-2.990792 -3.963623,-2.990792 -2.759794,0 -4.95325,3.319765 -4.95325,7.496672 0,1.175795 0.203158,2.507475 0.51665,3.386585 0.04697,0.131721 0.0854,0.246292 0.0854,0.254603 0,0.0083 -0.153934,0.03182 -0.342075,0.05224 -3.138282,0.340586 -6.881309,1.263073 -9.9475488,2.45162 -2.2935598,0.889039 -4.9007095,2.19048 -6.8790782,3.433909 -0.5246093,0.329723 -0.5644794,0.350868 -0.5644794,0.299375 z"
     id="path2" />
  <path
     style="fill:#932efa;fill-opacity:1;stroke-width:0.00390625"
     d="m 15.315045,39.308405 c 0.0011,-0.006 0.02321,-0.01196 0.138082,-0.03757 1.087902,-0.242552 2.168123,-0.438594 3.181639,-0.577415 0.279653,-0.0383 0.497731,-0.06519 0.888671,-0.109553 0.172191,-0.01954 0.309418,-0.04042 0.317269,-0.04827 0.0035,-0.0035 -0.009,-0.04242 -0.06632,-0.207471 -0.109165,-0.314326 -0.18044,-0.562055 -0.24894,-0.865234 -0.152721,-0.67594 -0.244212,-1.389625 -0.278173,-2.169922 -0.0063,-0.145318 -0.0063,-0.681614 2e-5,-0.824219 0.0026,-0.05801 0.0058,-0.131396 0.0072,-0.163086 0.0015,-0.03352 0.0042,-0.05762 0.0064,-0.05762 0.0038,0 0.0032,0.02276 -0.0053,0.199219 -0.0065,0.133374 -0.009,0.606568 -0.004,0.769531 0.01373,0.456178 0.04706,0.855566 0.10611,1.271484 0.100223,0.705967 0.267772,1.377747 0.494726,1.983574 0.01835,0.04897 0.03249,0.08991 0.03144,0.09096 -0.0011,0.0011 -0.09575,0.01232 -0.210437,0.02502 -1.165855,0.12915 -2.369021,0.316083 -3.481955,0.540982 -0.302097,0.06105 -0.788545,0.164293 -0.867831,0.184193 -0.0081,0.002 -0.0097,0.0012 -0.0085,-0.0046 z"
     id="path3" />
</svg>
